# xmcd
#
# Track frame offsets: 
#        150
#        28571
#        48338
#        92180
#        113695
#        177898
#
# Disc length: 2575 seconds
#
# Revision: 1
# Processed by: cddbd v1.5.2PL0 Copyright (c) Steve Scherf et al.
# Submitted via: ExactAudioCopy v1.0b6
#
DISCID=420a0d06
DTITLE=Black Sabbath - Black Sabbath
DYEAR=1969
DGENRE=Heavy Metal
TTITLE0=Black Sabbath
TTITLE1=The Wizard
TTITLE2=Wasp+Behind The Wall Of Sleep+Bassically+N.I.B.
TTITLE3=Wicked World
TTITLE4=A Bit Of Finger+Sleeping Village+Warning
TTITLE5=Evil Woman
EXTD=
EXTT0=
EXTT1=
EXTT2=
EXTT3=
EXTT4=
EXTT5=
PLAYORDER=
